name C:\Users\r0593348\3dpredictsim\Results\Batchsim_tmt_linear\Pog_s1_tmt_bCst_d00_k2000_ig24_act.mot
datacolumns 128
datarows 4
range 1.77105385 1.80647492
endheader
time	pelvis_tilt	pelvis_list	pelvis_rotation	pelvis_tx	pelvis_ty	pelvis_tz	hip_flexion_l	hip_adduction_l	hip_rotation_l	hip_flexion_r	hip_adduction_r	hip_rotation_r	knee_angle_l	knee_angle_r	ankle_angle_l	ankle_angle_r	subtalar_angle_l	subtalar_angle_r	tmt_angle_l	tmt_angle_r	mtp_angle_l	mtp_angle_r	lumbar_extension	lumbar_bending	lumbar_rotation	arm_flex_l	arm_add_l	arm_rot_l	arm_flex_r	arm_add_r	arm_rot_r	elbow_flex_l	elbow_flex_r	pro_sup_l	pro_sup_r	glut_med1_l/activation	glut_med2_l/activation	glut_med3_l/activation	glut_min1_l/activation	glut_min2_l/activation	glut_min3_l/activation	semimem_l/activation	semiten_l/activation	bifemlh_l/activation	bifemsh_l/activation	sar_l/activation	add_long_l/activation	add_brev_l/activation	add_mag1_l/activation	add_mag2_l/activation	add_mag3_l/activation	tfl_l/activation	pect_l/activation	grac_l/activation	glut_max1_l/activation	glut_max2_l/activation	glut_max3_l/activation	iliacus_l/activation	psoas_l/activation	quad_fem_l/activation	gem_l/activation	peri_l/activation	rect_fem_l/activation	vas_med_l/activation	vas_int_l/activation	vas_lat_l/activation	med_gas_l/activation	lat_gas_l/activation	soleus_l/activation	tib_post_l/activation	flex_dig_l/activation	flex_hal_l/activation	tib_ant_l/activation	per_brev_l/activation	per_long_l/activation	per_tert_l/activation	ext_dig_l/activation	ext_hal_l/activation	ercspn_l/activation	intobl_l/activation	extobl_l/activation	glut_med1_r/activation	glut_med2_r/activation	glut_med3_r/activation	glut_min1_r/activation	glut_min2_r/activation	glut_min3_r/activation	semimem_r/activation	semiten_r/activation	bifemlh_r/activation	bifemsh_r/activation	sar_r/activation	add_long_r/activation	add_brev_r/activation	add_mag1_r/activation	add_mag2_r/activation	add_mag3_r/activation	tfl_r/activation	pect_r/activation	grac_r/activation	glut_max1_r/activation	glut_max2_r/activation	glut_max3_r/activation	iliacus_r/activation	psoas_r/activation	quad_fem_r/activation	gem_r/activation	peri_r/activation	rect_fem_r/activation	vas_med_r/activation	vas_int_r/activation	vas_lat_r/activation	med_gas_r/activation	lat_gas_r/activation	soleus_r/activation	tib_post_r/activation	flex_dig_r/activation	flex_hal_r/activation	tib_ant_r/activation	per_brev_r/activation	per_long_r/activation	per_tert_r/activation	ext_dig_r/activation	ext_hal_r/activation	ercspn_r/activation	intobl_r/activation	extobl_r/activation	
          1.77105385	         -2.92939037	          1.36788005	         -7.10816801	          2.21381731	          0.85830847	          0.00213415	         32.57545849	          1.35357632	         -1.10427501	        -15.23653396	         -1.74448644	          7.56573832	        -16.98164084	        -16.72116069	          8.26464712	         -7.10454774	          1.20907858	         13.54561409	          0.01344652	          0.50197664	         -0.09702835	         29.39358041	         -0.50488389	          0.70520816	          2.42339348	         -9.95252941	        -13.52075455	         10.77118925	          4.06174995	        -13.49811813	         17.81070251	         15.51102244	         40.16604359	         86.51662706	         86.51662706	          0.05000020	          0.05000011	          0.05000021	          0.05000022	          0.05000023	          0.05000058	          0.06083825	          0.05983926	          0.18750917	          0.05000039	          0.05510230	          0.07154682	          0.11654978	          0.15599895	          0.15274606	          0.12740988	          0.05000056	          0.05983779	          0.05983917	          0.05000019	          0.06429384	          0.10831411	          0.05983893	          0.05861198	          0.15822792	          0.05000171	          0.05002686	          0.05000083	          0.12427209	          0.12553416	          0.10874587	          0.05983917	          0.05983917	          0.05983918	          0.05000004	          0.05000163	          0.05983894	          0.55962344	          0.32975313	          0.19009352	          0.29978440	          0.57685248	          0.36196040	          0.05203337	          0.12098875	          0.10351271	          0.17270187	          0.08041037	          0.06668301	          0.21910370	          0.12994081	          0.08280046	          0.05000091	          0.05000012	          0.05000011	          0.05000043	          0.09102693	          0.05255270	          0.05000018	          0.05000022	          0.05000035	          0.05000018	          0.17636607	          0.05000284	          0.05000073	          0.05000213	          0.05000106	          0.05000041	          0.33686092	          0.54566613	          0.05000036	          0.05000077	          0.05000041	          0.19862369	          0.09149651	          0.09171694	          0.08676210	          0.15185122	          0.23187480	          0.05983898	          0.15955341	          0.18074436	          0.20311072	          0.05000005	          0.29255613	          0.30837396	          0.05000004	          0.23169589	          0.05000011	          0.05000000	          0.05000002	          0.05000002	
          1.78286087	         -2.92262598	          1.30409395	         -7.27523835	          2.23258337	          0.85705023	          0.00182402	         31.90477669	          1.59344996	         -0.91696439	        -15.46680579	         -1.93467142	          7.37058269	        -16.91636812	        -17.91938603	          7.70200579	         -9.70489802	          0.81215717	         14.01387665	          0.02158200	          0.45621839	         -0.09632630	         30.73411669	         -0.26094424	          0.56640187	          2.50692997	        -11.26359473	        -13.51181881	         10.60573554	          3.66335944	        -13.54709764	         18.04744523	         15.54280534	         41.25659762	         86.51662706	         86.51662706	          0.06401781	          0.06907861	          0.08613162	          0.05000091	          0.05000135	          0.05000056	          0.05083480	          0.05000013	          0.15667759	          0.05000004	          0.05000017	          0.05978264	          0.09738591	          0.28652317	          0.21646314	          0.13336975	          0.05000051	          0.05000059	          0.05000024	          0.05983923	          0.10974785	          0.12781913	          0.05000006	          0.05000013	          0.33303302	          0.07161120	          0.06274802	          0.07161456	          0.23981195	          0.23407472	          0.20629934	          0.05000000	          0.05000000	          0.05000000	          0.05000001	          0.05000024	          0.05000008	          0.69722989	          0.32933738	          0.20225164	          0.60818830	          0.63155460	          0.40373991	          0.05000000	          0.10109492	          0.08649241	          0.14430502	          0.06718877	          0.05983926	          0.18307716	          0.10857505	          0.06918590	          0.05000106	          0.05000006	          0.05000010	          0.05000006	          0.07605972	          0.14578575	          0.14804828	          0.16242336	          0.05002275	          0.05000401	          0.14736672	          0.05002129	          0.05000042	          0.05000173	          0.05000125	          0.05000168	          0.28147185	          0.45594385	          0.07137096	          0.05988963	          0.05983940	          0.16596456	          0.10638292	          0.11517297	          0.07249699	          0.12688276	          0.19374828	          0.05000000	          0.13331849	          0.15102510	          0.16971381	          0.23870891	          0.31302296	          0.29048165	          0.46842288	          0.38167622	          0.22254135	          0.05844230	          0.07161452	          0.05109038	
          1.79466790	         -2.90987101	          1.24702992	         -7.40990944	          2.25154006	          0.85553978	          0.00153434	         31.09552331	          1.81271259	         -0.66068395	        -15.51008639	         -2.09256758	          7.17300146	        -17.46868890	        -19.47485553	          7.11891614	        -12.09489320	          0.39491413	         14.44438381	         -0.01733151	          0.37705918	         -0.16168028	         31.26644097	         -0.00794106	          0.40851901	          2.57571529	        -12.55512930	        -13.51314070	         10.51205538	          3.19983841	        -13.60219646	         18.21112461	         15.55152943	         42.33065719	         86.51662706	         86.51662706	          0.24913163	          0.25555689	          0.35690048	          0.05000028	          0.05000017	          0.05000015	          0.07906479	          0.05000031	          0.13335923	          0.05000007	          0.05000030	          0.07161466	          0.13779448	          0.23941121	          0.21468148	          0.16126208	          0.05000011	          0.07161413	          0.10624723	          0.05000010	          0.16967898	          0.16363509	          0.05000027	          0.05000009	          0.27827340	          0.05983657	          0.25337763	          0.05983919	          0.20038040	          0.19558656	          0.17237819	          0.05983919	          0.05983919	          0.05983918	          0.05398746	          0.05983920	          0.05983921	          0.60566810	          0.35630030	          0.18448216	          0.50818566	          0.62870782	          0.33735418	          0.05383903	          0.08570768	          0.07227071	          0.16028390	          0.05614117	          0.05000016	          0.15297439	          0.09072240	          0.05780990	          0.05000455	          0.05984005	          0.06320656	          0.05000056	          0.06355355	          0.16029827	          0.29944739	          0.15735472	          0.07837324	          0.11980112	          0.12313565	          0.06178955	          0.05984041	          0.05000712	          0.05002303	          0.05983976	          0.23519025	          0.38097440	          0.05983926	          0.05004239	          0.05000020	          0.13867548	          0.08889070	          0.09623542	          0.06057653	          0.10601979	          0.16189081	          0.05000000	          0.11139732	          0.12619249	          0.14180826	          0.43235565	          0.40441372	          0.30427615	          0.70255346	          0.51816226	          0.39395539	          0.07521822	          0.05983915	          0.05000010	
          1.80647492	         -2.89404360	          1.19572407	         -7.50731258	          2.27038377	          0.85381212	          0.00124662	         30.19320898	          2.02141752	         -0.37580197	        -15.33889247	         -2.21606576	          6.99055455	        -18.13270817	        -21.41875954	          6.83283689	        -13.96755685	         -0.05385439	         14.83335144	         -0.00969827	          0.28592707	         -0.16918661	         30.32381004	          0.22715269	          0.23487784	          2.62848176	        -13.76014277	        -13.52692662	         10.53595920	          2.71835031	        -13.66052467	         18.30852705	         15.49650306	         43.37232108	         86.51662706	         86.51662706	          0.31975529	          0.39516647	          0.49348009	          0.21964717	          0.22948408	          0.35201238	          0.06606455	          0.09129531	          0.11143136	          0.07161452	          0.05000058	          0.05983929	          0.11513734	          0.20004565	          0.20988414	          0.17356172	          0.05000009	          0.05983906	          0.08877777	          0.26448991	          0.22053381	          0.18797145	          0.05000009	          0.05000007	          0.23251774	          0.05000040	          0.28197206	          0.05000001	          0.19994148	          0.25451717	          0.21880754	          0.05000001	          0.05000002	          0.05000000	          0.05000000	          0.05000007	          0.05000006	          0.75225908	          0.29771496	          0.15414834	          0.72480282	          0.69305839	          0.50844588	          0.06936748	          0.07161503	          0.06038744	          0.24595870	          0.05000015	          0.05000007	          0.15712845	          0.07580523	          0.05000047	          0.05000149	          0.05000076	          0.05281374	          0.05000008	          0.05310386	          0.13394101	          0.25021028	          0.13148146	          0.06548689	          0.10010272	          0.10288884	          0.05163136	          0.05000119	          0.05000093	          0.05000066	          0.05000082	          0.19651860	          0.37542609	          0.05000013	          0.05000035	          0.05000011	          0.11587347	          0.08570696	          0.08570696	          0.05061623	          0.08858725	          0.13527157	          0.05000000	          0.09308058	          0.10544305	          0.11849115	          0.36126467	          0.33791735	          0.26309516	          0.64620836	          0.64940096	          0.32917849	          0.11159894	          0.05000000	          0.05000001	
